<svg viewBox="0 0 512 512" xml:space="preserve" xmlns="http://www.w3.org/2000/svg"><g fill="#000000" fill-opacity="1" stroke="none" class="fill-282828"><rect height="512" rx="64" ry="64" width="512" fill="#000000" fill-opacity="1" fill-rule="nonzero" stroke="none" class="fill-282828"></rect><g fill="#000000" fill-opacity="1" stroke="none" class="fill-282828"><g fill="#000000" fill-opacity="1" stroke="none" class="fill-282828"><path d="M355.844 380.406c-.07.04-.081.062-.063.031-.679 1.144-.696 2.653-1 4a.498.498 0 0 1 0 .032c-.005.02.005.043 0 .062-.147 1.446-.624 2.921-.281 4.313a.498.498 0 0 1 .031.093c.003.01-.003.022 0 .032.005.008-.005.023 0 .03.006.01.026-.007.031 0 .074.101.163.177.22.188.04.008.11.004.25-.093.15-.106.236-.317.28-.594a.498.498 0 0 1 .063-.094.498.498 0 0 1 0-.031.498.498 0 0 1 .031-.094.498.498 0 0 1 .031-.031c.599-2.387 1.004-4.892.844-7.344a.614.614 0 0 0-.156-.344.98.98 0 0 0-.156-.156c-.02-.013.007-.004-.063 0a.498.498 0 0 1-.031 0c-.026.003-.016 0-.031 0z" transform="translate(-5331.65 -6029.19) scale(15.99685)" fill="#000000" fill-opacity="1" stroke="none" class="fill-282828"></path><path d="M361.844 381.844c-1.037.503-1.567 1.705-2.281 2.687a.467.467 0 0 1-.032.094.467.467 0 0 1-.03.062c-.907 1.606-2.062 3.208-2.188 5.063v.031c.013.28.174.432.343.469.167.036.475-.06.594-.25a.467.467 0 0 1 .031-.031.467.467 0 0 1 0-.031.467.467 0 0 1 0-.032c1.646-2.261 2.884-4.925 3.907-7.531a.467.467 0 0 1 0-.031c.07-.171.094-.215.03-.344-.018-.038-.212-.169-.312-.156-.016.007-.046-.008-.062 0z" transform="translate(-5339.506 -6033.475) scale(15.99685)" fill="#000000" fill-opacity="1" stroke="none" class="fill-282828"></path></g><path d="M345.67 382.277c-.167.032-.416.181-.594.25-.628.239-.975.777-1.125 1.407-.153.643-.102 1.36 0 2.093.102.732.248 1.487.406 2.063.137.498.234.74.282.906v.125c0 .055-.027.05-.063.094-.02.01.02.062 0 .062a.267.267 0 0 1-.156.063c-.111.007-.198-.034-.313-.063-.078-.018-.18-.08-.156-.062-.036-.022-.101-.024-.125-.063 0 .015.022.015 0-.03-.025-.048-.054-.167-.094-.25-.089-.19-.159-.41-.28-.688a24.97 24.97 0 0 0-.907-1.875c-.35-.642-.762-1.224-1.219-1.625-.228-.2-.51-.402-.781-.47-.262-.065-.573-.01-.844.126-.7.388-1.096 1.024-1.25 1.687-.154.674-.081 1.45.031 2.125.115.675.292 1.231.407 1.688.049.192.108.372.125.469 0 .095-.04.344-.063.437-.118.41-.405 1.094-.406 1.094 0 0-5.453 14.483 6.25 13.469.096-.007.315-.063.406-.063a36.535 36.535 0 0 0 6.406-1.937c.38-.182.878-.363 1.438-.625 1.119-.525 2.524-1.196 3.875-1.938 1.35-.742 2.604-1.533 3.562-2.375.96-.843 1.66-1.767 1.532-2.687-.204-1.484-1.19-2.586-2.5-3.438-1.317-.855-2.958-1.444-4.594-1.875-1.636-.43-3.224-.78-4.438-.969-.606-.094-1.175-.122-1.53-.187-.106-.018-.163-.044-.22-.063-.03-.004-.033-.013-.062-.03-.036-.023-.103-.025-.125-.063-.02-.037 0-.084 0-.125V387.965c-.02-.748-.064-1.736-.219-2.656-.156-.925-.397-1.81-.906-2.407a1.772 1.772 0 0 0-1.25-.625 1.706 1.706 0 0 0-.5 0z" transform="translate(-5338.792 -6028.476) scale(15.99685)" fill="#000000" fill-opacity="1" stroke="none" class="fill-282828"></path></g></g><path d="M272.851 454.531c5.83-1.82 10.552-4.399 15.898-8.681 11.982-9.601 20.284-20.81 51.278-69.229 23.302-36.402 32.046-52.673 38.549-71.725 2.994-8.772 6.427-23.862 6.427-28.249 0-1.759-.187-2.132-.992-1.979-1.438.274-4.45 5.061-5.538 8.802-1.166 4.008-5.48 14.862-9.696 24.387-5.42 12.251-14.903 28.303-29.398 49.77-27.64 40.932-26.82 39.795-28.304 39.226-.785-.302-.792-.593-.06-2.664 1.011-2.868 5.511-10.556 11.443-19.552 2.468-3.743 6.102-9.846 8.076-13.562 1.974-3.718 4.831-8.662 6.35-10.988 1.92-2.943 2.76-4.81 2.76-6.14 0-1.052-.277-1.913-.617-1.913-.34 0-1.93 1.149-3.534 2.552-2.642 2.312-4.968 3.438-4.057 1.964.2-.323 4.46-5.235 9.469-10.915 14.308-16.226 18.944-23.018 21.754-31.873 1.6-5.043 2.53-13.89 1.459-13.89-1.318 0-5.698 6.556-13.128 19.649-4.206 7.413-8.566 14.636-9.687 16.05-11.431 14.424-32.767 24.456-56.09 26.372-2.339.192-7.678 1.002-11.864 1.799-7.47 1.422-7.807 1.437-18.144.784-12.097-.764-17.841-1.763-19.592-3.408-1.038-.976-1.983-1.146-6.364-1.146-6.274 0-12.17-1.072-20.66-3.758-14.73-4.66-26.8-10.836-35.87-18.353-6.966-5.773-9.465-9.356-17.58-25.206-5.466-10.679-8.453-15.619-9.44-15.619-1.603 0 2.245 12.658 5.994 19.717 5.877 11.066 11.698 18.294 26.494 32.896 21.116 20.838 25.445 23.932 40.53 28.96 12.722 4.24 19.652 5.176 38.348 5.177 11.817 0 11.826 0 13.527 1.432 1.372 1.155 2.074 1.362 3.625 1.07 1.245-.233 1.924-.139 1.924.267 0 .344-1.568 2.733-3.485 5.308-4.828 6.484-5.844 8.885-5.82 13.752.016 3.253.424 4.993 2.253 9.64 2.226 5.653 2.233 5.691 2.174 13.324-.055 7.168-.224 8.284-2.653 17.576-3.701 14.158-4.148 19.845-1.56 19.845.602 0 3.213-.661 5.802-1.469zm-31.136-3.634c-.067-2.027-1.169-7.895-2.449-13.04-3.798-15.273-4.594-21.744-3.345-27.166.318-1.375 1.842-5.224 3.389-8.551 2.534-5.455 2.809-6.437 2.788-9.973-.027-4.51-1.186-8.163-3.718-11.728-2.093-2.945-3.99-3.922-11.34-5.83-3.046-.792-8.49-2.687-12.097-4.212-3.607-1.524-8.42-3.353-10.697-4.065-4.98-1.555-6.221-1.156-5.803 1.864.28 2.029.268 6.992-.036 14.378-.16 3.874.079 5.361 1.635 10.184 1.838 5.695 2.208 8.458 1.323 9.855-1.315 2.075-4.574-2.468-8.274-11.534-2.8-6.861-11.398-23.487-17.89-34.596-5.133-8.78-14.364-23.491-26.858-42.798-7.037-10.875-11.22-18.803-14.865-28.171-4.457-11.46-9.017-18.89-11.593-18.89-2.043 0-1.842 2.37.917 10.829 9.232 28.296 23.043 55.633 51.246 101.436 11.171 18.143 14.87 23.614 19.414 28.713 1.906 2.139 7.433 9.885 12.283 17.213 7.2 10.88 9.81 14.324 14.233 18.771 2.98 2.996 6.63 6.147 8.113 7.002 3.74 2.157 10.006 4.31 12.045 4.138l1.701-.143-.122-3.686zM257.1 417.6c-.05-2.553-1.188-4.534-2.088-3.634-.308.308-.367 1.784-.137 3.456.316 2.293.602 2.878 1.337 2.729.698-.142.923-.788.888-2.551zm13.367-68.336c0-.39-.507-1.475-1.122-2.41-1.521-2.315-11.738-13.298-14.136-15.197-1.856-1.47-2-1.496-3.402-.61-1.696 1.07-1.456.801-8.775 9.813-3.835 4.722-5.426 7.092-5.029 7.49.581.58 14.008 1.37 26.09 1.536 4.772.065 6.377-.091 6.374-.622zm32.628-21.651c16.209-3.926 24.839-9.265 34.053-21.065 4.315-5.526 8.733-12.567 8.733-13.917 0-1.066-.574-1.17-12.187-2.203-11.693-1.04-17.013-2.815-17.013-5.678 0-1.371.079-1.396 3.969-1.223 2.183.097 7.072.544 10.865.992 9.144 1.082 12.616 1.032 22.81-.328 9.188-1.226 12.719-2.321 17.294-5.366 4.329-2.881 13.952-11.64 16.596-15.106 2.942-3.857 3.726-5.44 5.295-10.702 1.136-3.812 1.297-5.849 1.548-19.655l.28-15.402-3.325-.369c-1.828-.203-6.354-.863-10.057-1.466-8.184-1.333-10.03-1.353-13.679-.148-2.392.79-7.086 1.004-30.05 1.368-14.97.238-29.385.609-32.036.825-6.687.543-8.998-.182-13.131-4.125-1.821-1.737-3.311-3.459-3.311-3.826 0-1.481 3.514-5.787 6.068-7.434 6.813-4.394 16.68-10.005 19.484-11.08 7.615-2.92 20.983-3.625 30.58-1.61 9.664 2.027 18.64 7.18 22.963 13.184 2.786 3.868 3.293 4.192 8.158 5.215 2.14.45 4.752 1.317 5.804 1.927 2.28 1.319 9.13 3.473 11.046 3.473 1.346 0 1.357-.051 1.357-5.975 0-6.797-.857-28.927-1.724-44.487-1.762-31.648-6.558-55.882-13.945-70.46-7.684-15.163-24.566-24.144-57.756-30.725-24.914-4.94-49.668-6.997-72.292-6.004-54.189 2.377-89.313 10.552-105.945 24.659-8.857 7.511-14.123 18.692-18.444 39.155-5.641 26.719-7.635 48.116-8.111 87.033l-.33 26.932 1.835 5.387c4.51 13.234 12.504 26.847 19.65 33.46 3.936 3.643 10.197 7.243 13.778 7.922 4.405.835 17.81.684 26.976-.304 4.366-.471 10.554-1.013 13.75-1.204 5.653-.338 5.812-.315 5.812.855 0 1.736-1.849 2.663-7.938 3.98-12.363 2.674-15.023 3.034-21.95 2.976-8.312-.07-8.51.1-5.812 4.896 4.65 8.265 10.65 15.122 17.012 19.443 7.281 4.944 24.598 12.342 31.844 13.604 4.786.834 8.614-.17 12.462-3.263 3.874-3.117 5.229-5.077 5.162-7.468-.047-1.689-.548-2.49-2.919-4.672-1.574-1.448-3.013-3.234-3.197-3.969-.184-.735.058-3.76.539-6.722 1.49-9.189.832-15.555-1.571-15.194-.616.093-1.402.679-1.745 1.303-.344.623-1.446 2.304-2.449 3.735-2.854 4.072-4.13 7.57-4.13 11.326 0 3.105-.102 3.37-1.434 3.704-1.044.262-2.05-.067-3.7-1.21-4.562-3.162-7.343-8.727-7.336-14.681.01-6.356 2.435-10.011 9.067-13.646 4.764-2.612 8.03-6.039 9.355-9.813 1.146-3.268 4.023-19.434 5.165-29.027.523-4.397.874-12.907.923-22.416l.08-15.328-4.501-8.704c-4.03-7.794-4.88-9.038-8.13-11.888-1.997-1.75-6.59-5.82-10.206-9.042-11.266-10.038-16.36-13.116-24.632-14.887-8.007-1.714-11.711-3.513-11.711-5.687 0-2.09 3.445-2.958 10.206-2.572 13.475.77 21.526 5.06 40.397 21.531 13.58 11.853 16.7 15.677 20.673 25.334.962 2.34 2.274 6.421 2.914 9.072 2.278 9.425 2.457 13.937 1.815 45.566-.332 16.376-.72 30.11-.86 30.518-1.03 2.99-4.29 27.293-4.32 32.2-.032 5.554.035 5.889 1.481 7.398 3.731 3.895 12.982 6.233 20.216 5.11 4.471-.693 6.503-1.582 9.89-4.325 1.287-1.042 3.038-2.212 3.892-2.601 1.733-.79.774-1.603 8.894 7.554 6.056 6.83 10.457 7.94 21.186 5.34zm-6.488-33.631c-.852-4.009-3.505-9.663-5.346-11.393-.755-.709-2.694-1.637-4.309-2.063-1.616-.426-3.306-1.08-3.756-1.454-2.044-1.696.1-6.105 2.655-5.464 2.336.586 8.092 4.612 9.952 6.961 4.467 5.64 5.999 12.073 3.599 15.114-.677.858-1.427 1.559-1.666 1.559-.24 0-.748-1.467-1.129-3.26zM130.99 226.606c0-.804.675-3.15 1.5-5.21 1.494-3.735 1.496-3.76.492-6.335-.554-1.421-1.127-3.269-1.275-4.106-.288-1.642-.79-1.393 6.788-3.356 1.413-.365 2.638-1.248 3.685-2.654 2.74-3.68 7.151-7.765 10.375-9.61 8.053-4.608 19.568-6.707 31.733-5.787 7.186.543 11.505 1.832 18.994 5.669 12.743 6.527 18 10.299 18.81 13.492.783 3.097-3.083 7.408-7.96 8.876-3.795 1.142-13.147 1.874-36.54 2.861-11.634.491-23.115 1.228-25.514 1.638-8.624 1.475-17.392 3.783-18.573 4.889-1.607 1.505-2.514 1.373-2.514-.366zm146.096-31.233c-.75-.75-.364-6.51.556-8.297 3.937-7.65 11.443-15.89 23.73-26.05 14.204-11.745 24.42-16.305 36.536-16.305 5.039 0 7.406.82 7.406 2.568 0 2.335-3.546 4.142-13.363 6.808-6.978 1.895-8.621 2.722-14.215 7.158-12.024 9.535-30.972 27.016-36.067 33.276-.953 1.17-3.742 1.682-4.583.842zm-50.766-24.72c-1.363-.698-5.569-4.17-9.347-7.715-8.18-7.68-11.53-10.036-19.876-13.988-11.917-5.642-19.43-7.358-30.325-6.925-11.34.452-16.743 2.9-25.564 11.58-2.957 2.91-5.572 5.29-5.812 5.29-1.578 0 1.586-6.252 5.886-11.634 5.833-7.3 15.41-13.63 24.012-15.87 6.367-1.659 14.963-2.253 21.983-1.521 16.607 1.73 30.514 7.963 41.972 18.809 7.019 6.643 9.32 11.83 7.782 17.542-1.448 5.375-5.551 7.073-10.711 4.432zm52.153.358c-3.308-2.317-4.467-9.433-2.29-14.064 1.477-3.142 10.158-11.597 15.62-15.214 18.25-12.083 37.405-16.036 54.298-11.205 9.566 2.736 19.9 9.975 26.196 18.35 2.856 3.8 5.509 8.648 5.214 9.532-.102.306-2.842-1.875-6.087-4.848-10.2-9.343-17.3-12.009-30.646-11.506-15.89.6-26.877 5.713-46.494 21.64-10.525 8.545-12.65 9.528-15.81 7.315z" fill="#ffffff" class="fill-ffffff"></path></svg>