<svg viewBox="0 0 32 32" xml:space="preserve" xmlns="http://www.w3.org/2000/svg" enable-background="new 0 0 32 32"><path d="M16 .5C7.45.5.5 7.45.5 16S7.45 31.5 16 31.5 31.5 24.55 31.5 16 24.55.5 16 .5zM8.19 11.19c0-1.66 1.34-3 3-3 1.65 0 3 1.34 3 3 0 1.65-1.35 3-3 3-1.66 0-3-1.35-3-3zm4.06 13.14c-.29.44-.77.67-1.25.67a1.5 1.5 0 0 1-1.25-2.33l10-15a1.5 1.5 0 1 1 2.5 1.66l-10 15zm8.56-.52c-1.65 0-3-1.34-3-3 0-1.65 1.35-3 3-3 1.66 0 3 1.35 3 3 0 1.66-1.34 3-3 3z" fill="#000000" class="fill-000000"></path></svg>